<?xml version="1.0" encoding="UTF-8" standalone="no"?>
<!-- Created with Inkscape (http://www.inkscape.org/) -->

<svg
   xmlns:dc="http://purl.org/dc/elements/1.1/"
   xmlns:cc="http://creativecommons.org/ns#"
   xmlns:rdf="http://www.w3.org/1999/02/22-rdf-syntax-ns#"
   xmlns:svg="http://www.w3.org/2000/svg"
   xmlns="http://www.w3.org/2000/svg"
   xmlns:sodipodi="http://sodipodi.sourceforge.net/DTD/sodipodi-0.dtd"
   xmlns:inkscape="http://www.inkscape.org/namespaces/inkscape"
   id="svg2"
   version="1.1"
   inkscape:version="0.91 r"
   xml:space="preserve"
   width="1018.9189"
   height="746.57867"
   viewBox="0 0 1018.9189 746.57864"
   sodipodi:docname="icon-set-social-media.svg"><metadata
     id="metadata8"><rdf:RDF><cc:Work
         rdf:about=""><dc:format>image/svg+xml</dc:format><dc:type
           rdf:resource="http://purl.org/dc/dcmitype/StillImage" /><dc:title></dc:title></cc:Work></rdf:RDF></metadata><defs
     id="defs6"><clipPath
       clipPathUnits="userSpaceOnUse"
       id="clipPath18"><path
         d="m 0,841.89 1190.55,0 L 1190.55,0 0,0 0,841.89 Z"
         id="path20"
         inkscape:connector-curvature="0" /></clipPath><clipPath
       clipPathUnits="userSpaceOnUse"
       id="clipPath26"><path
         d="m 455.699,721.395 149.983,0 0,-149.983 -149.983,0 0,149.983 z"
         id="path28"
         inkscape:connector-curvature="0" /></clipPath><clipPath
       clipPathUnits="userSpaceOnUse"
       id="clipPath42"><path
         d="m 632.547,807.404 149.982,0 0,-149.983 -149.982,0 0,149.983 z"
         id="path44"
         inkscape:connector-curvature="0" /></clipPath><clipPath
       clipPathUnits="userSpaceOnUse"
       id="clipPath58"><path
         d="m 842.93,721.395 149.982,0 0,-149.983 -149.982,0 0,149.983 z"
         id="path60"
         inkscape:connector-curvature="0" /></clipPath><clipPath
       clipPathUnits="userSpaceOnUse"
       id="clipPath74"><path
         d="m 260.619,524.642 149.982,0 0,-149.984 -149.982,0 0,149.984 z"
         id="path76"
         inkscape:connector-curvature="0" /></clipPath><clipPath
       clipPathUnits="userSpaceOnUse"
       id="clipPath90"><path
         d="m 443.518,496.237 149.983,0 0,-149.983 -149.983,0 0,149.983 z"
         id="path92"
         inkscape:connector-curvature="0" /></clipPath><clipPath
       clipPathUnits="userSpaceOnUse"
       id="clipPath106"><path
         d="m 613.993,554.851 149.984,0 0,-149.983 -149.984,0 0,149.983 z"
         id="path108"
         inkscape:connector-curvature="0" /></clipPath><clipPath
       clipPathUnits="userSpaceOnUse"
       id="clipPath122"><path
         d="m 799.486,524.642 149.984,0 0,-149.984 -149.984,0 0,149.984 z"
         id="path124"
         inkscape:connector-curvature="0" /></clipPath><clipPath
       clipPathUnits="userSpaceOnUse"
       id="clipPath138"><path
         d="m 215.226,319.653 149.982,0 0,-149.98 -149.982,0 0,149.98 z"
         id="path140"
         inkscape:connector-curvature="0" /></clipPath><clipPath
       clipPathUnits="userSpaceOnUse"
       id="clipPath154"><path
         d="m 412.793,240.118 149.983,0 0,-149.9803 -149.983,0 0,149.9803 z"
         id="path156"
         inkscape:connector-curvature="0" /></clipPath><clipPath
       clipPathUnits="userSpaceOnUse"
       id="clipPath170"><path
         d="m 631.299,292.585 149.983,0 0,-149.981 -149.983,0 0,149.981 z"
         id="path172"
         inkscape:connector-curvature="0" /></clipPath><clipPath
       clipPathUnits="userSpaceOnUse"
       id="clipPath186"><path
         d="m 841.233,270.895 149.984,0 0,-149.981 -149.984,0 0,149.981 z"
         id="path188"
         inkscape:connector-curvature="0" /></clipPath><clipPath
       clipPathUnits="userSpaceOnUse"
       id="clipPath202"><path
         d="m 288.537,787.404 149.982,0 0,-149.983 -149.982,0 0,149.983 z"
         id="path204"
         inkscape:connector-curvature="0" /></clipPath><clipPath
       clipPathUnits="userSpaceOnUse"
       id="clipPath246"><path
         d="m 294.069,446.166 81.111,0 0,-43.104 -81.111,0 0,43.104 z"
         id="path248"
         inkscape:connector-curvature="0" /></clipPath></defs><sodipodi:namedview
     pagecolor="#ffffff"
     bordercolor="#666666"
     borderopacity="1"
     objecttolerance="10"
     gridtolerance="10"
     guidetolerance="10"
     inkscape:pageopacity="0"
     inkscape:pageshadow="2"
     inkscape:window-width="1366"
     inkscape:window-height="715"
     id="namedview4"
     showgrid="false"
     showguides="true"
     inkscape:guide-bbox="true"
     inkscape:snap-bbox="true"
     inkscape:bbox-paths="true"
     inkscape:bbox-nodes="true"
     inkscape:snap-bbox-edge-midpoints="true"
     inkscape:snap-bbox-midpoints="true"
     fit-margin-top="0"
     fit-margin-left="0"
     fit-margin-right="0"
     fit-margin-bottom="0"
     inkscape:zoom="0.44851463"
     inkscape:cx="220.19447"
     inkscape:cy="284.95251"
     inkscape:window-x="0"
     inkscape:window-y="26"
     inkscape:window-maximized="1"
     inkscape:current-layer="g198"><sodipodi:guide
       position="-7.5000001e-06,447.81472"
       orientation="1,0"
       id="guide4940" /><sodipodi:guide
       position="1018.9189,483.48803"
       orientation="1,0"
       id="guide4942" /></sodipodi:namedview><g
     id="g10"
     inkscape:groupmode="layer"
     inkscape:label="icon-set-1142000"
     transform="matrix(1.25,0,0,-1.25,-118.16784,1043.4442)"><g
       id="g5391"
       transform="matrix(0.92560176,0,0,0.92560176,37.355494,39.886673)"><path
         inkscape:connector-curvature="0"
         id="path84"
         style="fill:#ca2128;fill-opacity:1;fill-rule:nonzero;stroke:none"
         d="m 244.51587,483.92192 c 0,-12.588 -10.203,-22.791 -22.79,-22.791 l -104.401,0 c -12.587,0 -22.791,10.203 -22.791,22.791 l 0,104.401 c 0,12.587 10.204,22.791 22.791,22.791 l 104.401,0 c 12.587,0 22.79,-10.204 22.79,-22.791 l 0,-104.401 z" /><path
         d="m 197.34057,549.58112 0,32.122 -5.822,0 0,-24.551 c -1.294,-1.822 -2.516,-2.725 -3.679,-2.725 -0.783,0 -1.236,0.462 -1.363,1.364 -0.072,0.187 -0.072,0.898 -0.072,2.266 l 0,23.646 -5.803,0 0,-25.4 c 0,-2.265 0.197,-3.805 0.52,-4.776 0.577,-1.629 1.871,-2.39 3.747,-2.39 2.121,0 4.331,1.291 6.65,3.95 l 0,-3.506 5.822,0 z m -27.351,9.305 c 0,-2.972 -0.899,-4.459 -2.774,-4.459 -1.88,0 -2.782,1.487 -2.782,4.459 l 0,13.514 c 0,2.974 0.902,4.452 2.782,4.452 1.875,0 2.774,-1.478 2.774,-4.452 l 0,-13.514 z m 5.824,1.096 0,11.253 c 0,3.432 -0.589,5.94 -1.809,7.567 -1.611,2.193 -3.873,3.293 -6.789,3.293 -2.9,0 -5.17,-1.1 -6.778,-3.293 -1.241,-1.627 -1.824,-4.135 -1.824,-7.567 l 0,-11.253 c 0,-3.415 0.583,-5.944 1.824,-7.557 1.608,-2.189 3.878,-3.288 6.778,-3.288 2.916,0 5.178,1.099 6.789,3.288 1.22,1.613 1.809,4.142 1.809,7.557 m -17.253,32.705 -6.527,0 -4.403,-16.927 -4.58,16.927 -6.796,0 c 1.359,-3.993 2.779,-8.01 4.138,-12.008 2.07,-6.012 3.364,-10.542 3.947,-13.639 l 0,-17.459 6.456,0 0,17.459 7.765,25.647 z"
         style="fill:#ffeed7;fill-opacity:1;fill-rule:nonzero;stroke:none"
         id="path236"
         inkscape:connector-curvature="0" /><path
         d="m 216.19606,510.59572 c 0,-7.432 -0.005,-15.316 -1.672,-22.533 -1.164,-5.065 -5.31,-8.803 -10.301,-9.365 -11.818,-1.319 -23.783,-1.325 -35.69,-1.319 -11.909,-0.006 -23.871,0 -35.69,1.319 -4.993,0.562 -9.137,4.3 -10.299,9.365 -1.659,7.217 -1.659,15.101 -1.659,22.533 0,7.436 0.016,15.307 1.679,22.533 1.162,5.065 5.308,8.805 10.299,9.36 11.819,1.324 23.782,1.326 35.69,1.324 11.907,0.002 23.871,0 35.691,-1.324 4.994,-0.555 9.138,-4.295 10.3,-9.36 1.659,-7.226 1.652,-15.097 1.652,-22.533"
         style="fill:#ffeed7;fill-opacity:1;fill-rule:nonzero;stroke:none"
         id="path240"
         inkscape:connector-curvature="0" /><path
         inkscape:connector-curvature="0"
         id="path256"
         style="fill:#ca2128;fill-opacity:1;fill-rule:nonzero;stroke:none"
         d="m 209.09547,500.14462 0,0.838 -5.88,0 c 0,-2.311 -0.069,-3.582 -0.123,-3.897 -0.332,-1.541 -1.162,-2.312 -2.576,-2.312 -1.976,0 -2.939,1.465 -2.939,4.412 l 0,5.631 11.518,0 0,6.584 c 0,3.4 -0.579,5.887 -1.786,7.492 -1.611,2.178 -3.903,3.26 -6.793,3.26 -2.939,0 -5.238,-1.082 -6.897,-3.26 -1.228,-1.605 -1.78,-4.092 -1.78,-7.492 l 0,-11.135 c 0,-3.373 0.624,-5.885 1.848,-7.473 1.663,-2.171 3.954,-3.257 6.974,-3.257 3.007,0 5.369,1.138 6.966,3.445 0.697,1.019 1.147,2.18 1.343,3.451 0.051,0.58 0.125,1.861 0.125,3.713 m -5.762,9.471 -5.756,0 0,2.937 c 0,2.94 0.963,4.414 2.889,4.414 1.903,0 2.867,-1.474 2.867,-4.414 l 0,-2.937 z m -15.98,-10.104 0,12.662 c 0,3.006 -0.197,5.114 -0.579,6.391 -0.769,2.381 -2.31,3.588 -4.606,3.588 -2.115,0 -4.09,-1.162 -5.949,-3.447 l 0,13.933 -5.76,0 0,-42.664 5.76,0 0,3.078 c 1.923,-2.379 3.899,-3.517 5.949,-3.517 2.296,0 3.837,1.207 4.606,3.57 0.382,1.348 0.579,3.467 0.579,6.406 m -5.757,-0.453 c 0,-2.873 -0.847,-4.285 -2.507,-4.285 -0.947,0 -1.91,0.453 -2.87,1.412 l 0,19.381 c 0.96,0.947 1.923,1.4 2.87,1.4 1.66,0 2.507,-1.474 2.507,-4.338 l 0,-13.57 z m -21.888,-9.084 0,3.465 c -2.287,-2.623 -4.464,-3.904 -6.58,-3.904 -1.858,0 -3.14,0.752 -3.711,2.363 -0.318,0.969 -0.509,2.482 -0.509,4.726 l 0,25.139 5.757,0 0,-23.404 c 0,-1.348 0,-2.055 0.052,-2.24 0.141,-0.893 0.577,-1.346 1.349,-1.346 1.154,0 2.369,0.892 3.642,2.693 l 0,24.297 5.765,0 0,-31.789 -5.765,0 z m -11.638,36.654 0,6.01 -20.086,0 0,-6.01 6.776,0 0,-36.654 6.407,0 0,36.654 6.903,0 z" /><path
         inkscape:connector-curvature="0"
         id="path100"
         style="fill:#44546b;fill-opacity:1;fill-rule:nonzero;stroke:none"
         d="m 466.23371,483.92192 c 0,-12.588 -10.205,-22.791 -22.792,-22.791 l -104.4,0 c -12.588,0 -22.791,10.203 -22.791,22.791 l 0,104.401 c 0,12.587 10.203,22.791 22.791,22.791 l 104.4,0 c 12.587,0 22.792,-10.204 22.792,-22.791 l 0,-104.401 z" /><path
         d="m 394.03541,585.23642 0,-24.506 23.001,0 0,-15.224 -23.001,0 0,-24.87 c 0,-5.621 0.292,-9.226 0.887,-10.822 0.597,-1.592 1.698,-2.865 3.325,-3.822 2.147,-1.289 4.594,-1.938 7.36,-1.938 4.909,0 9.79,1.608 14.643,4.795 l 0,-15.293 c -4.14,-1.955 -7.895,-3.326 -11.253,-4.111 -3.356,-0.785 -6.991,-1.178 -10.896,-1.178 -4.427,0 -8.342,0.559 -11.751,1.68 -3.41,1.123 -6.314,2.721 -8.72,4.787 -2.405,2.07 -4.073,4.277 -5.002,6.615 -0.927,2.326 -1.39,5.709 -1.39,10.143 l 0,34.014 -10.721,0 0,13.725 c 3.81,1.234 7.079,3.01 9.783,5.316 2.725,2.313 4.902,5.087 6.54,8.328 1.648,3.239 2.779,7.356 3.399,12.361 l 13.796,0 z"
         style="fill:#ffeed7;fill-opacity:1;fill-rule:nonzero;stroke:none"
         id="path260"
         inkscape:connector-curvature="0" /><path
         inkscape:connector-curvature="0"
         id="path116"
         style="fill:#60caef;fill-opacity:1;fill-rule:nonzero;stroke:none"
         d="m 687.95151,483.92192 c 0,-12.587 -10.206,-22.791 -22.792,-22.791 l -104.4,0 c -12.586,0 -22.791,10.204 -22.791,22.791 l 0,104.401 c 0,12.587 10.205,22.791 22.791,22.791 l 104.4,0 c 12.586,0 22.792,-10.204 22.792,-22.791 l 0,-104.401 z" /><path
         d="m 666.54031,563.57332 c -3.523,-1.563 -7.312,-2.62 -11.285,-3.094 4.056,2.432 7.176,6.281 8.64,10.87 -3.792,-2.252 -7.996,-3.888 -12.474,-4.77 -3.587,3.821 -8.695,6.206 -14.345,6.206 -10.852,0 -19.65,-8.799 -19.65,-19.649 0,-1.542 0.173,-3.039 0.508,-4.476 -16.332,0.816 -30.807,8.639 -40.5,20.531 -1.688,-2.906 -2.658,-6.28 -2.658,-9.881 0,-6.815 3.468,-12.834 8.737,-16.353 -3.218,0.097 -6.248,0.988 -8.898,2.459 l 0,-0.248 c 0,-9.52 6.774,-17.463 15.76,-19.268 -1.648,-0.447 -3.389,-0.693 -5.176,-0.693 -1.264,0 -2.499,0.127 -3.699,0.357 2.501,-7.806 9.756,-13.486 18.353,-13.648 -6.72,-5.268 -15.19,-8.412 -24.402,-8.412 -1.584,0 -3.146,0.095 -4.683,0.275 8.693,-5.568 19.022,-8.824 30.124,-8.824 36.139,0 55.901,29.935 55.901,55.904 0,0.849 -0.021,1.696 -0.053,2.545 3.832,2.767 7.159,6.227 9.8,10.169"
         style="fill:#ffeed7;fill-opacity:1;fill-rule:nonzero;stroke:none"
         id="path264"
         inkscape:connector-curvature="0" /><path
         inkscape:connector-curvature="0"
         id="path132"
         style="fill:#ed802c;fill-opacity:1;fill-rule:nonzero;stroke:none"
         d="m 909.66933,483.92192 c 0,-12.588 -10.205,-22.791 -22.791,-22.791 l -104.401,0 c -12.586,0 -22.791,10.203 -22.791,22.791 l 0,104.401 c 0,12.587 10.205,22.791 22.791,22.791 l 104.401,0 c 12.586,0 22.791,-10.204 22.791,-22.791 l 0,-104.401 z" /><path
         d="m 855.19863,509.28032 -27.427,0 c -2.573,0 -4.656,2.109 -4.656,4.633 0,2.553 2.083,4.637 4.656,4.637 l 27.427,0 c 2.555,0 4.639,-2.084 4.639,-4.637 0,-2.524 -2.084,-4.633 -4.639,-4.633 m -27.427,37.141 13.495,0 c 2.578,0 4.661,-2.091 4.661,-4.639 0,-2.547 -2.083,-4.662 -4.661,-4.662 l -13.495,0 c -2.573,0 -4.656,2.115 -4.656,4.662 0,2.548 2.083,4.639 4.656,4.639 m 51.922,-12.11 -0.645,1.34 -1.08,0.85 c -1.418,1.105 -8.576,-0.08 -10.507,1.674 -1.367,1.261 -1.575,3.533 -1.987,6.595 -0.769,5.949 -1.262,6.257 -2.188,8.268 -3.37,7.16 -12.514,12.545 -18.797,13.294 l -17.024,0 c -13.395,0 -24.336,-10.975 -24.336,-24.371 l 0,-28.41 c 0,-13.365 10.941,-24.31 24.336,-24.31 l 27.971,0 c 13.39,0 24.257,10.945 24.336,24.31 l 0.154,19.68 -0.233,1.08 z"
         style="fill:#ffeed7;fill-opacity:1;fill-rule:nonzero;stroke:none"
         id="path268"
         inkscape:connector-curvature="0" /><path
         inkscape:connector-curvature="0"
         id="path196"
         style="fill:#702c90;fill-opacity:1;fill-rule:nonzero;stroke:none"
         d="m 909.66938,260.28339 c 0,-12.588 -10.205,-22.791 -22.791,-22.791 l -104.401,0 c -12.586,0 -22.791,10.203 -22.791,22.791 l 0,104.398 c 0,12.588 10.205,22.791 22.791,22.791 l 104.401,0 c 12.586,0 22.791,-10.203 22.791,-22.791 l 0,-104.398 z" /><path
         d="m 879.82168,335.88589 -10.207,-3.424 c -1.52,-0.672 -5.651,-5.463 -12.816,-14.695 -7.61,-9.567 -11.517,-15.715 -12.167,-18.801 l -0.435,-8.541 -0.22,-5.127 0.876,-12.986 13.465,-0.34 -0.216,-6.502 -21.941,0 -19.552,-0.336 0.653,6.148 6.297,0.352 c 3.26,0.338 5.216,1.029 5.864,2.049 0.435,0.672 0.649,4.793 0.649,11.969 l 0,4.441 -0.214,8.877 c -0.435,2.049 -3.912,9.572 -10.64,22.562 -6.952,13.331 -11.515,21.192 -13.69,23.928 l -12.598,2.735 0,5.812 c 0.654,0.678 7.607,0.678 20.424,0.34 8.905,0.338 16.288,0.338 22.152,-0.34 l -0.435,-4.793 -13.249,-2.057 c 4.126,-9.564 10.429,-22.89 18.898,-39.64 11.08,13.332 16.947,21.875 17.161,25.631 l -11.293,2.736 -0.875,6.156 18.903,0 17.81,-0.343 -2.604,-5.811 z"
         style="fill:#ffeed7;fill-opacity:1;fill-rule:nonzero;stroke:none"
         id="path232"
         inkscape:connector-curvature="0" /><path
         inkscape:connector-curvature="0"
         id="path148"
         style="fill:#f9a11c;fill-opacity:1;fill-rule:nonzero;stroke:none"
         d="m 244.51577,260.28329 c 0,-12.588 -10.203,-22.791 -22.79,-22.791 l -104.401,0 c -12.587,0 -22.791,10.203 -22.791,22.791 l 0,104.398 c 0,12.588 10.204,22.791 22.791,22.791 l 104.401,0 c 12.587,0 22.79,-10.203 22.79,-22.791 l 0,-104.398 z" /><path
         d="m 118.54167,292.89069 c 0.238,0 0.44,0.199 0.474,0.475 l 1.297,10.269 -1.292,10.506 c -0.039,0.277 -0.241,0.473 -0.479,0.473 -0.245,0 -0.452,-0.2 -0.485,-0.473 l -1.133,-10.506 1.133,-10.265 c 0.033,-0.276 0.24,-0.479 0.485,-0.479"
         style="fill:#ffeed7;fill-opacity:1;fill-rule:nonzero;stroke:none"
         id="path272"
         inkscape:connector-curvature="0" /><path
         d="m 114.26867,296.79889 c 0.235,0 0.424,0.18 0.458,0.453 l 1.004,6.383 -1.004,6.504 c -0.034,0.264 -0.223,0.453 -0.458,0.453 -0.245,0 -0.435,-0.189 -0.469,-0.457 l -0.84,-6.5 0.84,-6.379 c 0.034,-0.271 0.224,-0.457 0.469,-0.457"
         style="fill:#ffeed7;fill-opacity:1;fill-rule:nonzero;stroke:none"
         id="path276"
         inkscape:connector-curvature="0" /><path
         d="m 123.65157,316.09769 c -0.031,0.334 -0.275,0.578 -0.579,0.578 -0.301,0 -0.546,-0.244 -0.575,-0.578 l -1.081,-12.463 1.081,-12.004 c 0.029,-0.332 0.274,-0.572 0.575,-0.572 0.304,0 0.548,0.24 0.579,0.572 l 1.225,12.004 -1.225,12.463 z"
         style="fill:#ffeed7;fill-opacity:1;fill-rule:nonzero;stroke:none"
         id="path280"
         inkscape:connector-curvature="0" /><path
         d="m 127.65347,290.57229 c 0.354,0 0.642,0.295 0.677,0.676 l 1.157,12.381 -1.157,12.81 c -0.035,0.385 -0.323,0.674 -0.677,0.674 -0.361,0 -0.652,-0.289 -0.676,-0.674 l -1.022,-12.81 1.022,-12.381 c 0.024,-0.381 0.315,-0.676 0.676,-0.676"
         style="fill:#ffeed7;fill-opacity:1;fill-rule:nonzero;stroke:none"
         id="path284"
         inkscape:connector-curvature="0" /><path
         d="m 132.26477,290.37309 c 0.414,0 0.746,0.332 0.781,0.775 l -0.004,-0.004 1.09,12.485 -1.09,11.887 c -0.031,0.435 -0.363,0.773 -0.777,0.773 -0.42,0 -0.749,-0.338 -0.775,-0.775 l -0.964,-11.885 0.964,-12.481 c 0.026,-0.443 0.355,-0.775 0.775,-0.775"
         style="fill:#ffeed7;fill-opacity:1;fill-rule:nonzero;stroke:none"
         id="path288"
         inkscape:connector-curvature="0" /><path
         d="m 138.81367,303.62899 -1.022,19.322 c -0.029,0.49 -0.411,0.881 -0.879,0.881 -0.464,0 -0.845,-0.391 -0.873,-0.881 l -0.906,-19.322 0.906,-12.484 c 0.028,-0.495 0.409,-0.877 0.873,-0.877 0.468,0 0.85,0.382 0.879,0.877 l 0,-0.004 1.022,12.488 z"
         style="fill:#ffeed7;fill-opacity:1;fill-rule:nonzero;stroke:none"
         id="path292"
         inkscape:connector-curvature="0" /><path
         d="m 141.60807,290.24809 c 0.516,0 0.943,0.428 0.967,0.975 l 0,-0.008 0.956,12.414 -0.956,23.74 c -0.024,0.547 -0.451,0.975 -0.967,0.975 -0.528,0 -0.952,-0.428 -0.98,-0.975 l -0.841,-23.74 0.844,-12.412 c 0.025,-0.541 0.449,-0.969 0.977,-0.969"
         style="fill:#ffeed7;fill-opacity:1;fill-rule:nonzero;stroke:none"
         id="path296"
         inkscape:connector-curvature="0" /><path
         d="m 146.32877,330.42579 c -0.581,0 -1.049,-0.477 -1.074,-1.078 l -0.782,-25.727 0.782,-12.277 c 0.025,-0.6 0.493,-1.072 1.074,-1.072 0.579,0 1.051,0.47 1.072,1.072 l 0,-0.004 0.888,12.281 -0.888,25.727 c -0.021,0.605 -0.493,1.078 -1.072,1.078"
         style="fill:#ffeed7;fill-opacity:1;fill-rule:nonzero;stroke:none"
         id="path300"
         inkscape:connector-curvature="0" /><path
         d="m 151.09047,290.24809 c 0.638,0 1.146,0.512 1.17,1.174 l 0,-0.004 0.822,12.203 -0.822,26.59 c -0.024,0.662 -0.532,1.176 -1.17,1.176 -0.642,0 -1.157,-0.514 -1.167,-1.176 l -0.737,-26.59 0.737,-12.203 c 0.01,-0.658 0.525,-1.17 1.167,-1.17"
         style="fill:#ffeed7;fill-opacity:1;fill-rule:nonzero;stroke:none"
         id="path304"
         inkscape:connector-curvature="0" /><path
         d="m 155.89077,290.26179 c 0.689,0 1.248,0.561 1.269,1.275 l 0,-0.013 0.755,12.093 -0.755,25.915 c -0.021,0.714 -0.58,1.277 -1.269,1.277 -0.693,0 -1.25,-0.563 -1.271,-1.277 l -0.664,-25.915 0.668,-12.084 c 0.017,-0.71 0.574,-1.271 1.267,-1.271"
         style="fill:#ffeed7;fill-opacity:1;fill-rule:nonzero;stroke:none"
         id="path308"
         inkscape:connector-curvature="0" /><path
         d="m 162.77847,303.61729 -0.685,24.971 c -0.016,0.771 -0.619,1.379 -1.367,1.379 -0.749,0 -1.352,-0.608 -1.369,-1.383 l -0.613,-24.967 0.613,-12.012 c 0.017,-0.763 0.62,-1.371 1.369,-1.371 0.748,0 1.351,0.608 1.367,1.383 l 0,-0.012 0.685,12.012 z"
         style="fill:#ffeed7;fill-opacity:1;fill-rule:nonzero;stroke:none"
         id="path312"
         inkscape:connector-curvature="0" /><path
         d="m 165.59827,290.21299 c 0.795,0 1.454,0.662 1.465,1.473 l 0,-0.002 0.622,11.929 -0.622,29.713 c -0.011,0.815 -0.67,1.477 -1.465,1.477 -0.793,0 -1.45,-0.664 -1.466,-1.479 l -0.553,-29.695 0.553,-11.945 c 0.016,-0.809 0.673,-1.471 1.466,-1.471"
         style="fill:#ffeed7;fill-opacity:1;fill-rule:nonzero;stroke:none"
         id="path316"
         inkscape:connector-curvature="0" /><path
         d="m 170.45477,337.59969 c -0.859,0 -1.555,-0.715 -1.569,-1.582 l -0.642,-32.406 0.646,-11.756 c 0.01,-0.858 0.706,-1.57 1.565,-1.57 0.845,0 1.555,0.712 1.559,1.584 l 0,-0.014 0.701,11.756 -0.701,32.406 c -0.004,0.871 -0.714,1.582 -1.559,1.582"
         style="fill:#ffeed7;fill-opacity:1;fill-rule:nonzero;stroke:none"
         id="path320"
         inkscape:connector-curvature="0" /><path
         d="m 174.89467,290.20319 c 0.035,-0.006 39.138,-0.023 39.388,-0.023 7.85,0 14.213,6.439 14.213,14.388 0,7.942 -6.363,14.381 -14.213,14.381 -1.949,0 -3.805,-0.396 -5.497,-1.119 -1.126,12.969 -11.868,23.139 -24.973,23.139 -3.203,0 -6.326,-0.639 -9.085,-1.723 -1.075,-0.418 -1.362,-0.852 -1.37,-1.691 l 0,-45.651 c 0.012,-0.883 0.685,-1.617 1.537,-1.701"
         style="fill:#ffeed7;fill-opacity:1;fill-rule:nonzero;stroke:none"
         id="path324"
         inkscape:connector-curvature="0" /><path
         inkscape:connector-curvature="0"
         id="path164"
         style="fill:#326699;fill-opacity:1;fill-rule:nonzero;stroke:none"
         d="m 466.23385,260.28339 c 0,-12.588 -10.205,-22.791 -22.792,-22.791 l -104.4,0 c -12.588,0 -22.791,10.203 -22.791,22.791 l 0,104.398 c 0,12.588 10.203,22.791 22.791,22.791 l 104.4,0 c 12.587,0 22.792,-10.203 22.792,-22.791 l 0,-104.398 z" /><path
         d="m 392.35395,327.77559 c -9.672,0 -17.517,-7.596 -17.517,-16.977 0,-9.371 7.845,-16.974 17.517,-16.974 9.676,0 17.522,7.603 17.522,16.974 0,9.381 -7.846,16.977 -17.522,16.977 m 33.673,-10.436 -7.676,0 c 0.728,-2.378 1.123,-4.882 1.123,-7.49 0,-14.506 -12.145,-26.269 -27.12,-26.269 -14.972,0 -27.117,11.763 -27.117,26.269 0,2.608 0.399,5.112 1.123,7.49 l -8.008,0 0,-36.851 c 0,-1.908 1.558,-3.459 3.465,-3.459 l 60.745,0 c 1.909,0 3.465,1.551 3.465,3.459 l 0,36.851 z m -13.824,27.2 c -2.162,0 -3.927,-1.774 -3.927,-3.934 l 0,-9.394 c 0,-2.165 1.765,-3.93 3.927,-3.93 l 9.858,0 c 2.159,0 3.927,1.765 3.927,3.93 l 0,9.394 c 0,2.16 -1.768,3.934 -3.927,3.934 l -9.858,0 z m -52.348,9.687 64.838,0 c 6.159,0 11.195,-5.037 11.195,-11.197 l 0,-64.838 c 0,-6.158 -5.036,-11.191 -11.195,-11.191 l -64.838,0 c -6.159,0 -11.2,5.033 -11.2,11.191 l 0,64.838 c 0,6.16 5.041,11.197 11.2,11.197"
         style="fill:#ffeed7;fill-opacity:1;fill-rule:nonzero;stroke:none"
         id="path328"
         inkscape:connector-curvature="0" /><path
         inkscape:connector-curvature="0"
         id="path180"
         style="fill:#e54a55;fill-opacity:1;fill-rule:nonzero;stroke:none"
         d="m 687.95151,260.28339 c 0,-12.588 -10.206,-22.791 -22.792,-22.791 l -104.4,0 c -12.586,0 -22.791,10.203 -22.791,22.791 l 0,104.398 c 0,12.588 10.205,22.791 22.791,22.791 l 104.4,0 c 12.586,0 22.792,-10.203 22.792,-22.791 l 0,-104.398 z" /><path
         d="m 605.59801,318.08419 c 3.452,0.131 6.328,1.373 8.626,3.723 1.113,1.664 1.826,3.373 2.143,5.129 0.19,1.752 0.288,3.222 0.288,4.419 0,5.17 -1.325,10.387 -3.967,15.639 -1.243,2.518 -2.876,4.572 -4.901,6.151 -2.068,1.49 -4.443,2.285 -7.127,2.371 -3.555,-0.086 -6.505,-1.518 -8.864,-4.295 -1.988,-2.908 -2.938,-6.155 -2.847,-9.744 0,-4.741 1.383,-9.672 4.159,-14.803 1.346,-2.391 3.075,-4.42 5.205,-6.084 2.122,-1.674 4.551,-2.506 7.285,-2.506 m 18.28,-38.436 c 0,3.331 -1.086,6.227 -3.255,8.7 -2.296,2.341 -5.885,5.222 -10.772,8.638 -0.838,0.086 -1.819,0.125 -2.944,0.125 -0.667,0.082 -2.381,0 -5.135,-0.252 -2.713,-0.384 -5.492,-1.002 -8.333,-1.855 -0.667,-0.258 -1.603,-0.643 -2.815,-1.156 -1.211,-0.555 -2.441,-1.342 -3.697,-2.366 -1.212,-1.064 -2.232,-2.388 -3.066,-3.966 -0.962,-1.666 -1.437,-3.67 -1.437,-6.014 0,-4.609 2.08,-8.402 6.255,-11.389 3.97,-2.986 9.395,-4.521 16.285,-4.607 6.181,0.086 10.898,1.453 14.151,4.098 3.174,2.603 4.763,5.949 4.763,10.044 m -5.064,75.483 c 0.826,-0.514 1.751,-1.256 2.779,-2.238 0.988,-1.024 1.954,-2.288 2.9,-3.776 0.907,-1.408 1.711,-3.066 2.414,-4.99 0.577,-1.916 0.864,-4.156 0.864,-6.715 -0.074,-4.691 -1.113,-8.441 -3.111,-11.258 -0.972,-1.365 -2.006,-2.623 -3.102,-3.773 -1.211,-1.149 -2.498,-2.324 -3.863,-3.52 -0.785,-0.808 -1.504,-1.724 -2.169,-2.75 -0.78,-1.066 -1.17,-2.298 -1.17,-3.707 0,-1.373 0.401,-2.496 1.201,-3.392 0.68,-0.854 1.343,-1.602 1.984,-2.242 l 4.451,-3.643 c 2.761,-2.264 5.186,-4.75 7.268,-7.482 1.963,-2.774 2.984,-6.397 3.072,-10.872 0,-6.355 -2.808,-11.98 -8.421,-16.89 -5.812,-5.078 -14.211,-7.695 -25.184,-7.867 -9.186,0.084 -16.041,2.045 -20.572,5.871 -4.567,3.578 -6.856,7.853 -6.856,12.834 0,2.424 0.741,5.131 2.235,8.111 1.438,2.975 4.05,5.594 7.835,7.85 4.244,2.42 8.707,4.045 13.382,4.853 4.63,0.678 8.472,1.063 11.533,1.147 -0.945,1.244 -1.79,2.572 -2.53,3.986 -0.863,1.371 -1.291,3.027 -1.291,4.949 0,1.16 0.16,2.129 0.489,2.895 0.289,0.82 0.559,1.564 0.802,2.254 -1.488,-0.17 -2.897,-0.258 -4.21,-0.258 -6.984,0.088 -12.303,2.285 -15.965,6.59 -3.835,4.011 -5.751,8.679 -5.751,14.007 0,6.442 2.713,12.28 8.145,17.528 3.725,3.064 7.6,5.066 11.616,6.012 3.981,0.808 7.708,1.214 11.185,1.214 l 26.222,0 -8.096,-4.728 -8.086,0 z"
         style="fill:#ffeed7;fill-opacity:1;fill-rule:nonzero;stroke:none"
         id="path332"
         inkscape:connector-curvature="0" /><path
         d="m 670.52281,345.53539 -13.758,0 0,13.762 -6.667,0 0,-13.762 -13.758,0 0,-6.666 13.758,0 0,-13.756 6.667,0 0,13.756 13.758,0 0,6.666 z"
         style="fill:#ffeed7;fill-opacity:1;fill-rule:nonzero;stroke:none"
         id="path336"
         inkscape:connector-curvature="0" /><path
         inkscape:connector-curvature="0"
         id="path36"
         style="fill:#e94c88;fill-opacity:1;fill-rule:nonzero;stroke:none"
         d="m 466.23383,707.56342 c 0,-12.587 -10.204,-22.791 -22.791,-22.791 l -104.401,0 c -12.587,0 -22.79,10.204 -22.79,22.791 l 0,104.401 c 0,12.587 10.203,22.791 22.79,22.791 l 104.401,0 c 12.587,0 22.791,-10.204 22.791,-22.791 l 0,-104.401 z" /><path
         d="m 421.28853,784.06242 c -0.9,-1.213 -8.042,-10.369 -23.796,-16.8 0.99,-2.033 1.939,-4.095 2.829,-6.174 0.309,-0.734 0.616,-1.467 0.916,-2.201 14.179,1.786 28.267,-1.074 29.676,-1.369 -0.099,10.059 -3.692,19.294 -9.625,26.544 m -42.975,14.481 c 1.179,-1.573 8.919,-12.117 15.899,-24.943 15.157,5.675 21.571,14.3 22.339,15.392 -7.524,6.675 -17.423,10.738 -28.25,10.738 -3.44,0 -6.783,-0.411 -9.988,-1.187 m -31.726,-32.7 c 1.904,-0.026 19.462,-0.103 39.394,5.19 -7.059,12.554 -14.673,23.106 -15.8,24.645 -11.919,-5.619 -20.832,-16.611 -23.594,-29.835 m 10.054,-37.222 c 0.964,1.651 12.661,21.016 34.64,28.12 0.551,0.184 1.116,0.35 1.677,0.509 -1.068,2.421 -2.235,4.845 -3.455,7.232 -21.279,-6.37 -41.93,-6.104 -43.793,-6.064 -0.012,-0.436 -0.025,-0.865 -0.025,-1.303 0,-10.946 4.149,-20.936 10.956,-28.494 m 48.307,-10.731 c -0.637,3.738 -3.11,16.767 -9.095,32.312 l -0.28,-0.095 c -24.034,-8.374 -32.661,-25.044 -33.43,-26.611 7.223,-5.635 16.306,-8.996 26.158,-8.996 5.899,0 11.53,1.206 16.647,3.39 m 25.427,32.46 c -1.456,0.464 -13.19,3.96 -26.543,1.821 5.574,-15.314 7.845,-27.788 8.276,-30.383 9.561,6.464 16.367,16.704 18.267,28.562 m -42.074,-43.062 c -27.512,0 -49.889,22.385 -49.889,49.894 0,27.507 22.377,49.887 49.889,49.887 27.511,0 49.89,-22.38 49.89,-49.887 0,-27.509 -22.379,-49.894 -49.89,-49.894"
         style="fill:#ffeed7;fill-opacity:1;fill-rule:nonzero;stroke:none"
         id="path216"
         inkscape:connector-curvature="0" /><path
         inkscape:connector-curvature="0"
         id="path52"
         style="fill:#ef5223;fill-opacity:1;fill-rule:nonzero;stroke:none"
         d="m 687.95182,707.56332 c 0,-12.587 -10.205,-22.791 -22.791,-22.791 l -104.4,0 c -12.586,0 -22.791,10.204 -22.791,22.791 l 0,104.401 c 0,12.587 10.205,22.791 22.791,22.791 l 104.4,0 c 12.586,0 22.791,-10.204 22.791,-22.791 l 0,-104.401 z" /><path
         d="m 581.58662,737.70492 c 7.082,0 12.82,-5.747 12.82,-12.826 0,-7.086 -5.738,-12.822 -12.82,-12.822 -7.084,0 -12.824,5.736 -12.824,12.822 0,7.079 5.74,12.826 12.824,12.826"
         style="fill:#ffeed7;fill-opacity:1;fill-rule:nonzero;stroke:none"
         id="path220"
         inkscape:connector-curvature="0" /><path
         d="m 568.77602,757.20882 c 12.021,0 23.311,-4.702 31.807,-13.228 8.5,-8.544 13.177,-19.915 13.177,-32.023 l 18.512,0 c 0,35.16 -28.484,63.769 -63.496,63.769 l 0,-18.518 z"
         style="fill:#ffeed7;fill-opacity:1;fill-rule:nonzero;stroke:none"
         id="path224"
         inkscape:connector-curvature="0" /><path
         d="m 568.79952,790.03402 c 42.826,0 77.67,-35.038 77.67,-78.09 l 18.51,0 c 0,53.269 -43.143,96.605 -96.18,96.605 l 0,-18.515 z"
         style="fill:#ffeed7;fill-opacity:1;fill-rule:nonzero;stroke:none"
         id="path228"
         inkscape:connector-curvature="0" /><path
         inkscape:connector-curvature="0"
         id="path68"
         style="fill:#840d16;fill-opacity:1;fill-rule:nonzero;stroke:none"
         d="m 909.6695,707.56342 c 0,-12.587 -10.205,-22.791 -22.791,-22.791 l -104.4,0 c -12.586,0 -22.791,10.204 -22.791,22.791 l 0,104.401 c 0,12.587 10.205,22.791 22.791,22.791 l 104.4,0 c 12.586,0 22.791,-10.204 22.791,-22.791 l 0,-104.401 z" /><path
         d="m 832.9859,806.99752 c -27.055,0 -48.992,-21.932 -48.992,-48.992 0,-20.06 12.062,-37.294 29.326,-44.871 -0.139,3.426 -0.023,7.531 0.85,11.248 0.943,3.983 6.304,26.702 6.304,26.702 0,0 -1.566,3.123 -1.566,7.747 0,7.254 4.215,12.679 9.455,12.679 4.449,0 6.603,-3.344 6.603,-7.351 0,-4.479 -2.859,-11.18 -4.324,-17.385 -1.228,-5.197 2.608,-9.434 7.727,-9.434 9.283,0 15.533,11.916 15.533,26.045 0,10.733 -7.228,18.769 -20.383,18.769 -14.859,0 -24.115,-11.079 -24.115,-23.456 0,-4.271 1.26,-7.281 3.228,-9.611 0.909,-1.072 1.038,-1.499 0.702,-2.728 -0.229,-0.907 -0.768,-3.072 -0.996,-3.931 -0.329,-1.247 -1.329,-1.687 -2.452,-1.228 -6.845,2.791 -10.033,10.287 -10.033,18.714 0,13.914 11.733,30.605 35.014,30.605 18.701,0 31.017,-13.535 31.017,-28.066 0,-19.218 -10.691,-33.574 -26.439,-33.574 -5.291,0 -10.266,2.861 -11.963,6.104 0,0 -2.85,-11.287 -3.447,-13.467 -1.041,-3.772 -3.074,-7.552 -4.934,-10.494 4.403,-1.297 9.059,-2.007 13.885,-2.007 27.053,0 48.986,21.931 48.986,48.99 0,27.06 -21.933,48.992 -48.986,48.992"
         style="fill:#ffeed7;fill-opacity:1;fill-rule:nonzero;stroke:none"
         id="path340"
         inkscape:connector-curvature="0" /><g
         transform="translate(-194.00273,47.351422)"
         id="g198"><g
           id="g200" /><path
           d="m 438.5186,660.2119 c 0,-12.587 -10.203,-22.791 -22.79,-22.791 l -104.401,0 c -12.587,0 -22.791,10.204 -22.791,22.791 l 0,104.401 c 0,12.587 10.204,22.791 22.791,22.791 l 104.401,0 c 12.587,0 22.79,-10.204 22.79,-22.791 l 0,-104.401 z"
           style="fill:#3a5a98;fill-opacity:1;fill-rule:nonzero;stroke:none"
           id="path212"
           inkscape:connector-curvature="0" /></g><path
         d="m 209.58416,748.11022 2.425,18.806 -18.621,0 0,12.006 c 0,5.445 1.517,9.156 9.324,9.156 l 9.949,0.005 0,16.819 c -1.717,0.229 -7.623,0.742 -14.508,0.742 -14.357,0 -24.181,-8.766 -24.181,-24.861 l 0,-13.867 -16.241,0 0,-18.806 16.241,0 0,-48.251 19.416,0 0,48.251 16.196,0 z"
         style="fill:#ffeed7;fill-opacity:1;fill-rule:nonzero;stroke:none"
         id="path344"
         inkscape:connector-curvature="0" /></g></g></svg>